Coordinates
version=1
nRows=29
nColumns=24
inDegrees=yes

Units are S.I. units (second, meters, Newtons, ...)
Angles are in degrees.

endheader
time	pelvis_tilt	pelvis_list	pelvis_rotation	pelvis_tx	pelvis_ty	pelvis_tz	hip_flexion_r	hip_adduction_r	hip_rotation_r	knee_angle_r	ankle_angle_r	subtalar_angle_r	mtp_angle_r	hip_flexion_l	hip_adduction_l	hip_rotation_l	knee_angle_l	ankle_angle_l	subtalar_angle_l	mtp_angle_l	lumbar_extension	lumbar_bending	lumbar_rotation
      4.43000000	     11.98954573	     -5.59481809	      3.69465868	     -0.40027565	      0.91916745	     -0.24873350	    -29.82795488	      8.25027007	     -3.28734804	    -12.44671033	     21.42554610	      9.23105184	      0.00000000	      9.95112199	     -4.07465421	      9.82210272	     -5.10154847	     10.53675995	     -1.53127671	      0.00000000	    -28.90995068	      5.30248186	      4.32022611
      4.43500000	     11.94038491	     -5.18021569	      3.62373648	     -0.39292946	      0.91880862	     -0.24927852	    -29.80662181	      7.71533955	     -3.46228141	    -13.40843837	     21.15535111	      9.70255664	      0.00000000	      9.95740431	     -3.56780493	      9.74486605	     -5.58519061	     10.45965454	     -1.71452498	      0.00000000	    -28.83287204	      4.82303764	      4.22516449
      4.44000000	     11.94475946	     -4.71361616	      3.58155967	     -0.38556242	      0.91854206	     -0.24989557	    -29.81721725	      7.13563499	     -3.73556972	    -14.42172648	     20.84776218	     10.24748496	      0.00000000	      9.90138065	     -2.99641420	      9.68362742	     -6.13974204	     10.39012331	     -1.93560776	      0.00000000	    -28.81786379	      4.30467895	      4.09088405
      4.44500000	     11.97186030	     -4.20678647	      3.55470521	     -0.37817321	      0.91833817	     -0.25055894	    -29.82533510	      6.52050874	     -4.04434605	    -15.48964260	     20.49961976	     10.78591229	      0.00000000	      9.81640490	     -2.37552077	      9.64007999	     -6.76134484	     10.33160439	     -2.15115478	      0.00000000	    -28.82896086	      3.75502795	      3.92986452
      4.45000000	     11.94360293	     -3.67699954	      3.51782762	     -0.37075949	      0.91811232	     -0.25115092	    -29.74273359	      5.88987834	     -4.27697607	    -16.61962401	     20.12731907	     11.19355435	      0.00000000	      9.79351227	     -1.73034734	      9.58980198	     -7.46186551	     10.29620711	     -2.29838962	      0.00000000	    -28.77681619	      3.15766509	      3.78835305
      4.45500000	     12.02700095	     -3.11586116	      3.53325118	     -0.36334578	      0.91803772	     -0.25198264	    -29.76494549	      5.21943820	     -4.70768116	    -17.77154842	     19.66478325	     11.86837571	      0.00000000	      9.64369539	     -1.03050705	      9.58598444	     -8.20129800	     10.21730127	     -2.56764788	      0.00000000	    -28.85495661	      2.59266869	      3.59007268
      4.46000000	     11.96159204	     -2.55542988	      3.48755997	     -0.35581604	      0.91787909	     -0.25258305	    -29.58925089	      4.54700595	     -4.95557073	    -19.00380485	     19.12616032	     12.20812263	      0.00000000	      9.62971234	     -0.34956400	      9.47564444	     -8.96204780	     10.17630865	     -2.67523206	      0.00000000	    -28.74856764	      1.96286406	      3.42354770
      4.46500000	     11.91620825	     -1.99218979	      3.44746080	     -0.34830431	      0.91777075	     -0.25330211	    -29.39986654	      3.84787039	     -5.28331217	    -20.29391012	     18.55277200	     12.70820823	      0.00000000	      9.58750643	      0.34507793	      9.38848540	     -9.75064549	     10.11832173	     -2.82874399	      0.00000000	    -28.66946545	      1.35313366	      3.27573007
      4.47000000	     11.91523826	     -1.41995017	      3.43592425	     -0.34081768	      0.91770892	     -0.25412048	    -29.23037520	      3.14104020	     -5.65450357	    -21.62453126	     17.94647577	     13.23819758	      0.00000000	      9.49368768	      1.06073795	      9.35966631	    -10.56596209	     10.07864752	     -3.05411942	      0.00000000	    -28.64532534	      0.76688138	      3.07504149
      4.47500000	     11.86151632	     -0.84728853	      3.41407573	     -0.33326649	      0.91766276	     -0.25484166	    -28.97413395	      2.43830717	     -5.96554035	    -22.99910184	     17.22580649	     13.58957238	      0.00000000	      9.42940811	      1.76425381	      9.28612163	    -11.36145160	     10.01932898	     -3.16559612	      0.00000000	    -28.55251135	      0.14836337	      2.91899010
      4.48000000	     11.79602560	     -0.29194179	      3.38798973	     -0.32571726	      0.91764976	     -0.25556325	    -28.66326281	      1.73912740	     -6.27974094	    -24.43295067	     16.42660736	     13.91815338	      0.00000000	      9.34795850	      2.44533786	      9.21623197	    -12.11319484	      9.95404619	     -3.26320669	      0.00000000	    -28.44611930	     -0.45516107	      2.79290354
      4.48500000	     11.73181344	      0.27602624	      3.34559716	     -0.31817738	      0.91763812	     -0.25633709	    -28.32437819	      1.00537185	     -6.58987135	    -25.90465591	     15.65157363	     14.26121178	      0.00000000	      9.26156885	      3.14703829	      9.15016356	    -12.88897073	      9.91932633	     -3.41800900	      0.00000000	    -28.34246840	     -1.05655783	      2.64682731
      4.49000000	     11.66032659	      0.82372410	      3.30544032	     -0.31063214	      0.91767213	     -0.25707835	    -27.94050396	      0.28972528	     -6.87936475	    -27.41566645	     14.78235340	     14.50240828	      0.00000000	      9.14893346	      3.81894444	      9.09098252	    -13.60262238	      9.88081086	     -3.53658136	      0.00000000	    -28.22751663	     -1.64665821	      2.52545816
      4.49500000	     11.58234435	      1.35948454	      3.25426467	     -0.30309928	      0.91773606	     -0.25781293	    -27.51274804	     -0.42762443	     -7.15026199	    -28.96176754	     13.87177434	     14.67882612	      0.00000000	      9.01976243	      4.47433197	      9.02932391	    -14.27714871	      9.85526103	     -3.64937641	      0.00000000	    -28.10440946	     -2.22521901	      2.42115682
      4.50000000	     11.49697063	      1.88308258	      3.19434625	     -0.29557321	      0.91783323	     -0.25851258	    -27.04128285	     -1.14082250	     -7.39239340	    -30.53633615	     12.92218956	     14.77621808	      0.00000000	      8.86922177	      5.11010338	      8.97126739	    -14.89583047	      9.84284061	     -3.75262950	      0.00000000	    -27.97101788	     -2.80341717	      2.33368830
      4.50500000	     11.40817165	      2.39239556	      3.11807728	     -0.28805873	      0.91796543	     -0.25919525	    -26.53015512	     -1.85534222	     -7.61190351	    -32.13355624	     11.95038628	     14.79217356	      0.00000000	      8.69601949	      5.72534835	      8.91113958	    -15.46292127	      9.84730181	     -3.85432266	      0.00000000	    -27.82947402	     -3.36448221	      2.26459991
      4.51000000	     11.29195566	      2.87430950	      2.99206426	     -0.28059903	      0.91810502	     -0.25988143	    -25.93580669	     -2.58492216	     -7.78496983	    -33.77545087	     11.00241011	     14.79609989	      0.00000000	      8.53043717	      6.30965483	      8.81180031	    -15.97419689	      9.86007590	     -4.00330068	      0.00000000	    -27.65761492	     -3.90968705	      2.26696960
      4.51500000	     11.21799041	      3.35086219	      2.92127867	     -0.27312607	      0.91833344	     -0.26048637	    -25.37908439	     -3.25729921	     -7.94485422	    -35.38049808	      9.98885646	     14.56247875	      0.00000000	      8.28759448	      6.87689045	      8.78936845	    -16.42642352	      9.92398582	     -4.05419736	      0.00000000	    -27.52920641	     -4.44468934	      2.19469511
      4.52000000	     11.12214895	      3.81786570	      2.79802320	     -0.26569080	      0.91856763	     -0.26106756	    -24.75115869	     -3.96050158	     -8.07010611	    -37.01766436	      9.04821552	     14.31431914	      0.00000000	      8.04112742	      7.42940736	      8.72552266	    -16.81012144	      9.99224747	     -4.16367315	      0.00000000	    -27.37424006	     -4.98702082	      2.17520717
      4.52500000	     11.00077301	      4.24673052	      2.60161892	     -0.25831915	      0.91881497	     -0.26164994	    -24.03745028	     -4.67615944	     -8.12251290	    -38.67917347	      8.15382763	     14.01414193	      0.00000000	      7.80886964	      7.93795183	      8.58577272	    -17.14646426	     10.08363111	     -4.30466908	      0.00000000	    -27.18261795	     -5.49251595	      2.24674724
      4.53000000	     10.89714758	      4.65344396	      2.43134044	     -0.25096860	      0.91913031	     -0.26215282	    -23.32133866	     -5.33766669	     -8.13716626	    -40.31002278	      7.26332503	     13.58036458	      0.00000000	      7.52630728	      8.41395959	      8.50234426	    -17.41155785	     10.20584579	     -4.39645250	      0.00000000	    -27.01042267	     -5.98338860	      2.29841654
      4.53500000	     10.83887447	      5.04868793	      2.31439770	     -0.24364897	      0.91953637	     -0.26263082	    -22.64647799	     -5.94905169	     -8.17108480	    -41.89316499	      6.40498827	     13.03401966	      0.00000000	      7.16500957	      8.87556639	      8.51927927	    -17.61466201	     10.35002755	     -4.46274736	      0.00000000	    -26.89319696	     -6.45387211	      2.28351451
      4.54000000	     10.71449520	      5.39497882	      2.02961877	     -0.23634612	      0.91991971	     -0.26301618	    -21.81744168	     -6.60167969	     -8.04472685	    -43.51082579	      5.64908863	     12.49903953	      0.00000000	      6.85877869	      9.27279453	      8.35387078	    -17.74892426	     10.51003029	     -4.58950262	      0.00000000	    -26.66680282	     -6.91793142	      2.46310449
      4.54500000	     10.64829528	      5.72869086	      1.84045653	     -0.22915420	      0.92038236	     -0.26342257	    -21.04855131	     -7.18019867	     -7.97590534	    -45.07350565	      4.98637324	     11.81528700	      0.00000000	      6.47599761	      9.66009606	      8.29985624	    -17.84888256	     10.69110841	     -4.68269485	      0.00000000	    -26.53251547	     -7.33088110	      2.52154021
      4.55000000	     10.65482246	      6.05045261	      1.77574524	     -0.22191457	      0.92095994	     -0.26393725	    -20.39397560	     -7.69186794	     -8.03489297	    -46.53443169	      4.35802268	     11.06286193	      0.00000000	      5.97562424	     10.04321873	      8.39940821	    -17.89533625	     10.92506358	     -4.75103853	      0.00000000	    -26.47534502	     -7.67290811	      2.43378742
      4.55500000	     10.56540237	      6.31086265	      1.43228669	     -0.21479687	      0.92150575	     -0.26413645	    -19.49554587	     -8.23572496	     -7.73747607	    -48.06198211	      3.88236573	     10.32355057	      0.00000000	      5.57559041	     10.33460681	      8.23703508	    -17.85499388	     11.10675216	     -4.88868316	      0.00000000	    -26.28455041	     -8.07459137	      2.67729985
      4.56000000	     10.58834521	      6.57009599	      1.35764343	     -0.20768225	      0.92217350	     -0.26455071	    -18.80514432	     -8.66612137	     -7.73342645	    -49.44739746	      3.51106062	      9.47101272	      0.00000000	      5.02491047	     10.64240808	      8.36465811	    -17.80758214	     11.35759101	     -4.95372586	      0.00000000	    -26.24724135	     -8.35811608	      2.57454169
      4.56500000	     10.53223140	      6.75164457	      1.04023539	     -0.20065338	      0.92283562	     -0.26471035	    -17.90218317	     -9.08999454	     -7.40688178	    -50.86629114	      3.19525130	      8.64141313	      0.00000000	      4.55512607	     10.84756641	      8.22984146	    -17.67773747	     11.58147820	     -5.07384898	      0.00000000	    -26.09047737	     -8.65949235	      2.80849688
      4.57000000	     10.51733415	      6.90822139	      0.83900136	     -0.19368146	      0.92354472	     -0.26491997	    -17.06875381	     -9.42763557	     -7.18248171	    -52.19870113	      3.06340847	      7.77227313	      0.00000000	      4.02697503	     11.03097158	      8.23746063	    -17.53606548	     11.84791708	     -5.14027978	      0.00000000	    -25.99543444	     -8.88894865	      2.87386379
